<svg width="133" height="133" viewBox="0 0 133 133" fill="none" xmlns="http://www.w3.org/2000/svg">
<g clip-path="url(#clip0_107_122)">
<path d="M32.528 45.245L32.149 44.8256C50.1107 34.9308 60.3182 19.0684 66.9764 0.490612C53.9674 -1.89233 34.8634 4.33605 25.1168 21.8553C16.0822 38.1166 19.9388 57.2415 28.2821 67.0187L46.3053 41.9978L45.7214 41.2359L32.528 45.245ZM92.6258 71.575C102.956 62.1148 108.237 43.6393 101.789 26.9842C95.284 10.1809 79.2531 1.41618 68.7229 0.797432C69.1121 4.68378 69.4348 8.54455 69.9009 12.39C71.0738 22.0752 73.3888 31.3615 79.5041 39.3234C81.9164 42.4683 84.2058 45.695 86.5156 48.9114C87.3044 50.0109 88.006 51.1614 88.7538 52.2915L88.4465 52.583L81.481 48.4921C84.3748 57.0421 87.8832 64.5847 92.6258 71.575ZM28.7276 67.8011C33.8903 76.2232 50.5614 85.4431 58.0647 84.0829C57.8045 83.2936 57.5925 82.4893 57.4296 81.6744C56.6614 76.4022 55.806 71.1352 55.2426 65.8222C54.9968 63.4801 54.8278 62.846 52.4462 62.9074C51.1607 62.9381 49.8854 63.4188 48.6101 63.7409C47.7957 63.9659 47.0275 64.3239 46.2387 64.6205C49.8239 61.1841 54.0954 59.0262 58.6895 57.6199C63.2837 56.2137 68.0059 55.1603 72.7537 53.933C67.591 41.8956 63.5346 29.6382 66.0955 15.8161C65.8561 16.0981 65.6355 16.3953 65.4348 16.7059C59.2103 29.5138 52.9908 42.3234 46.7765 55.1347C45.9416 56.8017 45.2041 58.5813 44.0927 60.0591C43.1952 61.2511 42.0212 62.2075 40.6715 62.846C36.7534 64.646 32.7328 66.175 28.7276 67.796V67.8011ZM62.7305 64.4415C64.0775 71.0892 65.2914 77.1028 66.5923 83.1266C66.7094 83.4044 66.8955 83.6478 67.133 83.8339C67.3705 84.02 67.6514 84.1426 67.9495 84.1903C76.4509 83.0956 84.4104 79.4202 90.7513 73.6613C81.8754 69.4733 73.3683 65.0909 62.6998 64.4568L62.7305 64.4415Z" fill="white"/>
<path d="M32.5585 45.1631C32.6281 45.1853 32.7006 45.1974 32.7737 45.1989C33.238 45.1194 33.6883 44.973 34.1104 44.7642L35.7801 44.2529L39.2065 43.2301L42.5458 42.2074L44.2155 41.6961C44.6713 41.558 45.3526 41.1387 45.8391 41.3739C46.7252 41.8188 45.8391 42.683 45.5062 43.1176L44.1899 44.9637L41.5164 48.6608L36.1899 56.0551L32.241 61.5369L30.2589 64.2829C30.0797 64.5335 28.2102 66.9471 28.2768 67.0391C19.9234 57.2619 16.077 38.1268 25.1117 21.8808C34.8429 4.36668 53.9621 -1.86681 66.9712 0.511022C66.879 0.511022 64.692 6.40701 64.4667 6.95928C63.5789 9.0695 62.6195 11.1542 61.5883 13.2132C59.5819 17.246 57.2561 21.1122 54.633 24.7751C52.02 28.4221 49.0651 31.8124 45.8084 34.9001C42.4245 38.0837 38.7188 40.9079 34.7506 43.3273C34.3051 43.5983 33.8338 43.8387 33.378 44.079C33.0424 44.2136 32.7229 44.3851 32.4254 44.5904C32.1437 44.8563 32.2871 45.0813 32.5585 45.1631Z" fill="#287216"/>
<path d="M92.6257 71.5751C87.8933 64.5848 84.3849 57.0422 81.4604 48.5076L83.9649 49.965L86.2493 51.2996L87.3402 51.9439L87.8831 52.2559C88.0097 52.3615 88.1491 52.4508 88.2979 52.5218C88.3599 52.5386 88.4254 52.537 88.4864 52.517C88.5474 52.497 88.6012 52.4595 88.6411 52.4093C88.7537 52.2661 88.641 52.1689 88.5693 52.0513C88.4976 51.9337 88.4157 51.8212 88.3389 51.7036C88.2057 51.4991 88.0726 51.2843 87.9189 51.0797C87.6526 50.6655 87.4067 50.2462 87.1148 49.832C86.8997 49.515 86.6948 49.203 86.4695 48.8962C84.1545 45.6849 81.86 42.4531 79.4528 39.3031C73.3631 31.3463 71.043 22.06 69.8496 12.3748C69.3835 8.52934 69.066 4.66857 68.6716 0.782227C79.1711 1.39586 95.2327 10.1657 101.742 26.969C108.221 43.6292 102.946 62.1149 92.6257 71.5751Z" fill="#287216"/>
<path d="M28.7122 67.8008C32.7173 66.1695 36.7379 64.6508 40.6457 62.8866C41.9933 62.2423 43.1664 61.2849 44.067 60.0945C45.1784 58.6167 45.9313 56.8576 46.7457 55.1701C52.9771 42.3691 59.1982 29.5612 65.4091 16.7464C65.6097 16.4342 65.8304 16.1353 66.0698 15.8516C63.5089 29.6583 67.5704 41.931 72.728 53.9684C67.9853 55.2008 63.2733 56.2542 58.6689 57.6605C54.0645 59.0667 49.8033 61.24 46.2181 64.6559C47.0017 64.3593 47.7546 64.0014 48.5843 63.7764C49.8392 63.4286 51.1452 62.9428 52.4256 62.9428C54.8072 62.8815 54.9864 63.5156 55.222 65.8627C55.7803 71.1553 56.6356 76.4223 57.4039 81.7149C57.5722 82.5285 57.7842 83.3325 58.039 84.1234C50.5459 85.4427 33.8697 76.2229 28.7122 67.8008Z" fill="#287216"/>
<path d="M62.7099 64.4414C73.3784 65.0908 81.8856 69.4732 90.7307 73.6459C84.3899 79.4048 76.4304 83.0801 67.929 84.1748C67.5141 84.2311 66.6793 83.5612 66.5717 83.1112C65.2708 77.1283 64.0569 71.0687 62.7099 64.4414Z" fill="#287216"/>
<path d="M17.0091 94.9188C17.96 95.0452 18.8932 95.2803 19.7903 95.6194C19.9557 95.6563 20.1026 95.7505 20.2051 95.8853C20.2806 96.0618 20.3223 96.2508 20.328 96.4427L20.7941 101.428C20.7941 101.5 20.7378 101.546 20.6148 101.572C20.5671 101.588 20.5151 101.586 20.4688 101.566C20.4225 101.546 20.3852 101.51 20.3639 101.464C19.8389 99.7289 18.8447 98.1718 17.4906 96.9643C16.234 95.9184 14.6395 95.3641 13.004 95.4046C11.4491 95.3815 9.92498 95.8387 8.64032 96.7137C7.3012 97.6523 6.25535 98.95 5.62364 100.457C4.14981 104.15 4.16263 108.269 5.65947 111.952C6.31737 113.5 7.40059 114.829 8.78375 115.787C10.136 116.693 11.7343 117.163 13.3625 117.132C14.865 117.182 16.3377 116.706 17.5264 115.787C18.6532 114.894 19.7185 113.418 20.7224 111.359C20.748 111.288 20.8197 111.267 20.9426 111.287C21.0656 111.308 21.1219 111.359 21.1219 111.431L20.5789 115.88C20.5597 116.071 20.5114 116.259 20.4356 116.437C20.3322 116.561 20.1953 116.653 20.0412 116.703C17.9076 117.481 15.6546 117.883 13.383 117.889C11.0099 117.929 8.65847 117.432 6.50456 116.437C4.56985 115.539 2.92272 114.123 1.74655 112.346C0.588828 110.579 -0.0123829 108.505 0.0204821 106.394C-0.0128222 104.235 0.60658 102.116 1.79776 100.314C3.0176 98.5051 4.70633 97.0612 6.6838 96.1359C8.84274 95.1118 11.2081 94.5958 13.5981 94.6273C14.7409 94.6378 15.8812 94.7353 17.0091 94.9188Z" fill="#287216"/>
<path d="M27.6571 117.24C27.6571 117.097 27.693 117.025 27.7647 117.025C28.3271 117.051 28.8902 116.991 29.4343 116.846C29.5983 116.794 29.7474 116.704 29.8695 116.583C29.9915 116.462 30.0829 116.314 30.136 116.151C30.2762 115.631 30.3366 115.093 30.3153 114.555V97.9514C30.338 97.4186 30.2775 96.8855 30.136 96.3713C30.0773 96.2072 29.9816 96.0587 29.8564 95.9373C29.7312 95.8158 29.5798 95.7247 29.4138 95.6707C28.878 95.5186 28.3213 95.453 27.7647 95.4764C27.693 95.4764 27.6571 95.4048 27.6571 95.2616C27.6571 95.1185 27.693 95.0469 27.7647 95.0469H42.9914C43.2322 95.0469 43.35 95.1543 43.35 95.369L43.4217 100.135C43.4217 100.186 43.3551 100.222 43.2271 100.242C43.099 100.263 43.017 100.242 42.9914 100.171C42.7119 98.959 42.0295 97.8775 41.0555 97.1025C40.0008 96.3873 38.7442 96.0289 37.4703 96.0798H36.3947C35.8274 96.0317 35.2627 96.1977 34.8121 96.5452C34.6308 96.7355 34.4915 96.9618 34.4032 97.2093C34.315 97.4569 34.2798 97.7201 34.2999 97.9821V114.407C34.2611 114.948 34.3995 115.486 34.6943 115.941C34.8494 116.119 35.0443 116.258 35.2631 116.347C35.482 116.436 35.7188 116.472 35.9542 116.452H37.1374C38.7158 116.529 40.2808 116.13 41.6291 115.307C42.8342 114.425 43.7073 113.165 44.108 111.727C44.108 111.681 44.1541 111.656 44.2514 111.656C44.3204 111.656 44.3879 111.675 44.446 111.712C44.5075 111.746 44.5382 111.777 44.5382 111.804C44.3104 113.491 44.1907 115.19 44.1797 116.892C44.1934 117.039 44.1553 117.185 44.0721 117.306C44.0121 117.356 43.9425 117.393 43.8677 117.415C43.7928 117.437 43.7142 117.444 43.6368 117.434H27.7595C27.693 117.46 27.6571 117.388 27.6571 117.24ZM40.4972 107.146C39.53 106.528 38.3907 106.234 37.2449 106.307H32.3998V105.284H37.2807C38.3924 105.352 39.5007 105.104 40.4767 104.568C40.8254 104.363 41.1128 104.069 41.3091 103.715C41.5055 103.362 41.6036 102.963 41.5932 102.559C41.5932 102.487 41.6598 102.451 41.7878 102.451C41.9159 102.451 41.9876 102.487 41.9876 102.559L41.9518 105.785L41.9876 107.509C42.0337 108.322 42.0593 108.966 42.0593 109.447C42.0593 109.493 41.9876 109.518 41.8442 109.518C41.7008 109.518 41.6291 109.493 41.6291 109.447C41.643 109 41.5471 108.557 41.3498 108.156C41.1525 107.755 40.8597 107.408 40.4972 107.146Z" fill="#287216"/>
<path d="M58.6894 117.496L57.2707 117.419C56.7073 117.419 56.0774 117.388 55.386 117.388L52.7278 117.419C52.2463 117.419 51.601 117.46 50.7867 117.46C50.7355 117.46 50.715 117.388 50.715 117.24C50.715 117.092 50.715 117.025 50.7867 117.025C51.3542 117.05 51.9222 116.99 52.4717 116.846C52.6409 116.797 52.796 116.708 52.9241 116.587C53.0523 116.466 53.15 116.317 53.2092 116.151C53.3659 115.634 53.4335 115.095 53.409 114.555V97.9514C53.4349 97.4171 53.3673 96.8824 53.2092 96.3713C53.1481 96.2094 53.0523 96.0628 52.9284 95.9418C52.8045 95.8207 52.6556 95.7282 52.4922 95.6707C51.9618 95.5177 51.4099 95.452 50.8583 95.4764C50.7866 95.4764 50.7508 95.4048 50.7508 95.2616C50.7508 95.1185 50.7866 95.0469 50.8583 95.0469L52.7637 95.0827C53.8648 95.1287 54.7355 95.1543 55.386 95.1543C56.3642 95.1543 57.3732 95.1185 58.4026 95.0469C59.6472 94.9957 60.482 94.9753 60.9122 94.9753C63.1452 94.9321 65.3563 95.423 67.3605 96.4071C69.1492 97.2809 70.6598 98.6334 71.7241 100.314C72.7557 101.983 73.2887 103.911 73.2606 105.872C73.3006 108.025 72.7479 110.148 71.6626 112.009C70.6324 113.754 69.1403 115.182 67.3502 116.135C65.5224 117.107 63.4799 117.607 61.4091 117.588C60.6511 117.603 59.7394 117.567 58.6894 117.496ZM65.1172 115.609C66.3549 114.753 67.3104 113.55 67.8624 112.152C68.5621 110.409 68.8985 108.542 68.8508 106.665C68.875 104.776 68.5593 102.899 67.9187 101.122C67.3912 99.6035 66.4748 98.2495 65.2605 97.1946C64.149 96.2527 62.7337 95.7441 61.2759 95.7628C59.7906 95.7628 58.7663 95.906 58.2029 96.1923C57.6497 96.4787 57.3732 97.0872 57.3732 98.023V114.156C57.3732 115.113 57.6241 115.788 58.126 116.202C58.628 116.616 59.6011 116.79 61.0403 116.79C62.4875 116.816 63.9088 116.404 65.1172 115.609Z" fill="#287216"/>
<path d="M104.124 117.24C104.124 117.388 104.062 117.46 103.945 117.46C103.463 117.46 102.721 117.434 101.717 117.388C100.713 117.342 99.9088 117.312 99.4529 117.312C98.8537 117.312 98.1265 117.337 97.2609 117.388C96.3953 117.44 95.8012 117.46 95.3249 117.46C95.2276 117.46 95.1815 117.388 95.1815 117.24C95.1815 117.092 95.2276 117.025 95.3249 117.025C95.7825 117.053 96.241 116.987 96.6719 116.831C96.8036 116.77 96.9134 116.67 96.9867 116.545C97.0599 116.42 97.093 116.275 97.0816 116.13C96.9776 115.409 96.7341 114.714 96.3646 114.085L89.0713 99.7055L90.8331 96.6373L83.6628 112.382C83.3745 112.987 83.2157 113.645 83.1967 114.315C83.1775 114.699 83.2507 115.082 83.4103 115.431C83.5698 115.781 83.8109 116.087 84.1135 116.325C84.8274 116.836 85.6947 117.089 86.5719 117.041C86.6949 117.041 86.7563 117.112 86.7563 117.255C86.7563 117.404 86.6949 117.475 86.5719 117.475C86.1417 117.475 85.5476 117.45 84.7076 117.404C83.796 117.353 83.0072 117.327 82.3363 117.327C81.6653 117.327 80.9124 117.353 80.0008 117.404C79.1864 117.45 78.5309 117.475 78.0289 117.475C77.9316 117.475 77.8804 117.404 77.8804 117.255C77.8804 117.107 77.9316 117.041 78.0289 117.041C78.6176 117.062 79.2008 116.92 79.714 116.632C80.2728 116.247 80.7397 115.744 81.0814 115.159C81.6917 114.153 82.2308 113.105 82.6948 112.024L90.49 94.9191C90.5361 94.8476 90.6436 94.8066 90.8126 94.8066C90.9817 94.8066 91.1097 94.8476 91.1353 94.9191L100.114 112.561C100.676 113.805 101.375 114.984 102.198 116.074C102.396 116.353 102.654 116.584 102.952 116.751C103.251 116.918 103.583 117.017 103.924 117.041C104.063 117.015 104.124 117.097 104.124 117.24ZM84.8715 108.24H95.2173L95.4683 109.263H84.3338L84.8715 108.24Z" fill="#287216"/>
<path d="M123.868 96.1361C124.433 96.491 124.896 96.9872 125.211 97.5756C125.525 98.1639 125.68 98.824 125.661 99.4906C125.674 100.814 125.265 102.107 124.493 103.183C123.717 104.279 122.674 105.16 121.461 105.739C120.243 106.343 118.902 106.656 117.543 106.655C116.611 106.655 115.95 106.655 115.571 106.619V114.545C115.545 115.088 115.605 115.632 115.75 116.156C115.804 116.317 115.896 116.463 116.018 116.582C116.14 116.7 116.289 116.787 116.452 116.836C116.996 116.981 117.559 117.042 118.122 117.015C118.168 117.015 118.193 117.087 118.193 117.23C118.193 117.373 118.193 117.45 118.122 117.45C117.328 117.45 116.708 117.45 116.252 117.409L113.522 117.378L110.9 117.409C110.419 117.409 109.773 117.45 108.959 117.45C108.887 117.45 108.851 117.378 108.851 117.23C108.851 117.081 108.887 117.015 108.959 117.015C109.521 117.042 110.085 116.981 110.628 116.836C110.794 116.783 110.945 116.693 111.071 116.572C111.196 116.451 111.292 116.304 111.351 116.141C111.503 115.623 111.568 115.084 111.545 114.545V97.9514C111.568 97.4186 111.507 96.8855 111.366 96.3713C111.308 96.2075 111.213 96.0592 111.089 95.9378C110.965 95.8163 110.814 95.725 110.649 95.6707C110.111 95.5187 109.553 95.4531 108.995 95.4764C108.949 95.4764 108.923 95.4048 108.923 95.2616C108.923 95.1184 108.949 95.0469 108.995 95.0469L110.9 95.0826C112.001 95.1287 112.877 95.1542 113.522 95.1542C114.338 95.1542 115.192 95.1184 116.083 95.0469C116.396 95.0213 116.785 94.9957 117.251 94.9753C117.717 94.9548 118.239 94.9395 118.813 94.9395C120.991 94.9395 122.676 95.3383 123.868 96.1361ZM120.703 96.8008C120.41 96.4308 120.033 96.1368 119.602 95.9436C119.171 95.7504 118.7 95.6638 118.229 95.6912C117.504 95.6221 116.778 95.8124 116.18 96.2281C115.956 96.4662 115.785 96.7496 115.68 97.0593C115.575 97.369 115.538 97.6976 115.571 98.023V105.622C116.259 105.726 116.954 105.774 117.65 105.765C119.038 105.765 120.042 105.376 120.652 104.599C121.261 103.822 121.568 102.554 121.568 100.856C121.575 98.8923 121.29 97.5406 120.713 96.8008H120.703ZM123.469 114.463C121.535 111.777 119.739 108.995 118.086 106.128L121.389 105.105C123.376 108.116 125.034 110.471 126.362 112.172C127.379 113.549 128.569 114.79 129.901 115.864C130.755 116.565 131.814 116.967 132.918 117.01C132.964 117.01 132.99 117.081 132.99 117.225C132.99 117.368 132.99 117.444 132.918 117.444H126.526C125.983 117.46 124.964 116.458 123.479 114.458L123.469 114.463Z" fill="#287216"/>
<path d="M4.92708 129.538H7.82085C7.82242 129.956 7.75671 130.372 7.62622 130.77C7.49924 131.144 7.30291 131.491 7.04747 131.793C6.78959 132.097 6.46784 132.342 6.10503 132.509C5.70793 132.688 5.27583 132.777 4.83999 132.769C4.41027 132.774 3.98384 132.694 3.5852 132.534C3.2009 132.387 2.85192 132.16 2.56086 131.869C2.27208 131.578 2.04707 131.23 1.90015 130.847C1.58728 130.023 1.58728 129.114 1.90015 128.29C2.04723 127.91 2.27146 127.564 2.5588 127.274C2.84614 126.985 3.19037 126.758 3.56982 126.608C3.96846 126.447 4.39489 126.367 4.82461 126.372C5.18338 126.37 5.54064 126.42 5.88483 126.521C6.20012 126.618 6.49633 126.768 6.76062 126.965C7.02159 127.168 7.24371 127.415 7.41621 127.697L6.87841 128.183C6.68366 127.852 6.39971 127.582 6.05895 127.405C5.67639 127.214 5.2525 127.119 4.82461 127.129C4.40932 127.12 3.9993 127.223 3.63841 127.428C3.27751 127.634 2.97935 127.933 2.77594 128.295C2.56566 128.688 2.4557 129.127 2.4557 129.573C2.4557 130.019 2.56566 130.458 2.77594 130.852C2.97674 131.211 3.27038 131.509 3.62615 131.716C3.93541 131.889 4.27824 131.995 4.63161 132.025C4.98498 132.055 5.34071 132.009 5.67483 131.89C5.91118 131.806 6.12744 131.673 6.30991 131.501C6.48886 131.338 6.63943 131.146 6.7555 130.934C6.86999 130.718 6.95442 130.487 7.00645 130.248H4.95778L4.92708 129.538Z" fill="#287216"/>
<path d="M12.333 130.346L12.2613 130.505L11.3394 132.693H10.4892L13.383 126.158L16.2768 132.693H15.4317L14.5251 130.561L14.4534 130.382L13.383 127.876L12.333 130.346ZM12.0206 130.116H14.7761L15.0475 130.827H11.7491L12.0206 130.116Z" fill="#287216"/>
<path d="M20.287 126.47V132.693H19.529V126.47H20.287ZM19.949 126.47H21.2191C21.5922 126.463 21.9619 126.542 22.2998 126.7C22.6083 126.839 22.8712 127.063 23.0579 127.345C23.2516 127.639 23.3499 127.985 23.3395 128.337C23.3483 128.688 23.2501 129.034 23.0579 129.329C22.8699 129.611 22.6075 129.835 22.2998 129.978C21.9615 130.134 21.5918 130.211 21.2191 130.203H19.949V129.538H21.2191C21.4625 129.544 21.704 129.495 21.9259 129.395C22.1237 129.31 22.2914 129.167 22.4074 128.986C22.5015 128.846 22.5639 128.687 22.5905 128.52C22.6171 128.354 22.6072 128.184 22.5614 128.021C22.5156 127.859 22.4351 127.708 22.3254 127.58C22.2157 127.452 22.0794 127.349 21.9259 127.278C21.7029 127.182 21.4619 127.135 21.2191 127.14H19.949V126.47ZM21.4855 129.625L23.7134 132.693H22.7761L20.6404 129.625H21.4855Z" fill="#287216"/>
<path d="M27.7647 126.47V132.693H27.0067V126.47H27.7647ZM27.4266 132.693V131.937H28.8761C29.2044 131.942 29.5309 131.886 29.839 131.773C30.1184 131.67 30.373 131.51 30.5867 131.303C30.796 131.091 30.9599 130.838 31.0682 130.561C31.2936 129.928 31.2936 129.236 31.0682 128.603C30.9586 128.326 30.7949 128.074 30.5867 127.861C30.3717 127.656 30.1174 127.496 29.839 127.391C29.5303 127.28 29.2042 127.224 28.8761 127.227H27.4266V126.47H28.8761C29.4388 126.461 29.9945 126.596 30.4894 126.864C30.9501 127.119 31.3312 127.496 31.5906 127.953C31.8531 128.457 31.9902 129.016 31.9902 129.584C31.9902 130.152 31.8531 130.712 31.5906 131.216C31.3312 131.673 30.9501 132.05 30.4894 132.305C29.994 132.571 29.4384 132.704 28.8761 132.693H27.4266Z" fill="#287216"/>
<path d="M36.2872 126.47V132.693H35.5343V126.47H36.2872ZM35.9491 126.47H39.0938V127.181H35.9491V126.47ZM35.9491 128.96H38.9146V129.671H35.9491V128.96ZM35.9491 131.982H39.0938V132.693H35.9491V131.982Z" fill="#287216"/>
<path d="M48.4153 126.47V133.005L43.6982 128.06V132.693H42.9454V126.158L47.6675 131.103V126.47H48.4153Z" fill="#287216"/>
<path d="M53.0146 131.466C53.1558 131.645 53.3296 131.796 53.5268 131.911C53.7313 132.02 53.9607 132.075 54.1926 132.07C54.4861 132.083 54.7737 131.985 54.9967 131.793C55.0954 131.706 55.1736 131.598 55.2258 131.477C55.278 131.356 55.3029 131.225 55.2989 131.093C55.3119 130.855 55.2413 130.62 55.0991 130.428C54.9638 130.254 54.788 130.115 54.5869 130.024C54.3701 129.915 54.1459 129.821 53.916 129.743C53.7624 129.687 53.5882 129.62 53.4039 129.533C53.2112 129.445 53.0291 129.335 52.8609 129.206C52.6876 129.066 52.5448 128.892 52.441 128.695C52.3236 128.473 52.267 128.224 52.2771 127.974C52.2725 127.683 52.3526 127.397 52.5076 127.15C52.664 126.904 52.8855 126.706 53.1478 126.578C53.4365 126.432 53.7566 126.36 54.0799 126.368C54.3862 126.359 54.69 126.424 54.9659 126.557C55.2131 126.683 55.4326 126.857 55.6113 127.069C55.7806 127.255 55.9221 127.465 56.0313 127.692L55.3808 128.066C55.2994 127.906 55.2015 127.755 55.0889 127.616C54.9703 127.467 54.8243 127.342 54.6587 127.247C54.4668 127.151 54.2538 127.103 54.0389 127.109C53.9061 127.098 53.7723 127.113 53.6456 127.154C53.5188 127.196 53.4017 127.262 53.3014 127.35C53.2276 127.421 53.1687 127.506 53.1283 127.6C53.0878 127.694 53.0666 127.795 53.0658 127.897C53.0649 128.065 53.1111 128.229 53.199 128.372C53.3151 128.542 53.4695 128.682 53.6497 128.782C53.9221 128.938 54.2105 129.065 54.5101 129.16C54.685 129.227 54.856 129.304 55.0223 129.39C55.2094 129.486 55.3818 129.608 55.5344 129.753C55.6949 129.898 55.8269 130.071 55.9237 130.265C56.0317 130.495 56.0843 130.747 56.0774 131.001C56.0793 131.255 56.0251 131.506 55.9186 131.737C55.8177 131.952 55.6729 132.144 55.4935 132.3C55.3107 132.452 55.1028 132.572 54.8789 132.653C54.6099 132.747 54.3248 132.788 54.04 132.772C53.7551 132.756 53.4763 132.684 53.2195 132.561C52.9351 132.416 52.6798 132.22 52.4666 131.983C52.261 131.75 52.0886 131.49 51.9544 131.211L52.5639 130.807C52.6952 131.039 52.846 131.259 53.0146 131.466Z" fill="#287216"/>
<path d="M66.0442 130.346L65.9724 130.505L65.0506 132.693H64.2004L67.0941 126.158L69.9879 132.693H69.1428L68.2363 130.561L68.1645 130.382L67.0941 127.876L66.0442 130.346ZM65.7317 130.116H68.4923L68.7587 130.827H65.4808L65.7317 130.116Z" fill="#287216"/>
<path d="M78.7152 126.47V133.005L73.993 128.06V132.693H73.2402V126.158L77.9572 131.103V126.47H78.7152Z" fill="#287216"/>
<path d="M83.4067 126.47V132.694H82.6538V126.47H83.4067ZM83.0686 132.694V131.937H84.5233C84.8499 131.942 85.1748 131.887 85.481 131.773C85.7619 131.673 86.0175 131.512 86.2298 131.303C86.4421 131.093 86.606 130.84 86.7102 130.561C86.9356 129.928 86.9356 129.236 86.7102 128.603C86.6045 128.324 86.4404 128.071 86.2288 127.861C86.0155 127.654 85.7607 127.493 85.481 127.391C85.1742 127.279 84.8497 127.224 84.5233 127.227H83.0686V126.47H84.5233C85.0844 126.46 85.6386 126.596 86.1314 126.864C86.5947 127.117 86.9778 127.494 87.2377 127.953C87.5003 128.457 87.6374 129.017 87.6374 129.584C87.6374 130.152 87.5003 130.712 87.2377 131.216C86.9778 131.675 86.5947 132.052 86.1314 132.305C85.6381 132.571 85.084 132.705 84.5233 132.694H83.0686Z" fill="#287216"/>
<path d="M97.097 126.47V132.693H96.339V126.47H97.097ZM96.7589 128.96H101.036V129.671H96.7589V128.96ZM101.281 126.47V132.693H100.523V126.47H101.281Z" fill="#287216"/>
<path d="M105.082 128.316C105.228 127.933 105.453 127.585 105.742 127.293C106.036 127.003 106.384 126.773 106.767 126.618C107.573 126.291 108.475 126.291 109.281 126.618C109.664 126.774 110.012 127.003 110.306 127.293C110.595 127.586 110.821 127.934 110.972 128.316C111.286 129.129 111.286 130.029 110.972 130.842C110.822 131.225 110.596 131.573 110.306 131.865C110.014 132.158 109.665 132.39 109.281 132.545C108.474 132.865 107.574 132.865 106.767 132.545C106.383 132.39 106.034 132.158 105.742 131.865C105.453 131.574 105.227 131.226 105.082 130.842C104.767 130.029 104.767 129.129 105.082 128.316ZM105.942 130.822C106.143 131.188 106.439 131.492 106.8 131.702C107.161 131.912 107.573 132.02 107.991 132.013C108.418 132.021 108.838 131.909 109.205 131.691C109.555 131.48 109.843 131.18 110.039 130.822C110.241 130.434 110.347 130.003 110.347 129.566C110.347 129.129 110.241 128.699 110.039 128.311C109.842 127.954 109.554 127.654 109.205 127.442C108.838 127.225 108.417 127.115 107.991 127.125C107.565 127.117 107.145 127.226 106.777 127.442C106.426 127.654 106.137 127.953 105.937 128.311C105.735 128.699 105.63 129.129 105.63 129.566C105.63 130.003 105.735 130.434 105.937 130.822H105.942Z" fill="#287216"/>
<path d="M113.835 126.47H117.799V127.181H116.186V132.693H115.428V127.181H113.824L113.835 126.47Z" fill="#287216"/>
<path d="M121.85 126.47V132.693H121.092V126.47H121.85ZM121.512 126.47H124.652V127.181H121.512V126.47ZM121.512 128.96H124.472V129.671H121.512V128.96ZM121.512 131.982H124.652V132.693H121.512V131.982Z" fill="#287216"/>
<path d="M129.236 126.47V131.982H131.684V132.693H128.478V126.47H129.236Z" fill="#287216"/>
</g>
<defs>
<clipPath id="clip0_107_122">
<rect width="133" height="133" fill="white"/>
</clipPath>
</defs>
</svg>
