<svg width="133" height="133" viewBox="0 0 133 133" fill="none" xmlns="http://www.w3.org/2000/svg">
<g clip-path="url(#clip0_107_362)">
<path d="M32.5279 45.2459L32.1489 44.8266C50.1107 34.9318 60.3182 19.0694 66.9764 0.491589C53.9673 -1.89136 34.8634 4.33703 25.1168 21.8563C16.0822 38.1176 19.9388 57.2425 28.282 67.0197L46.3053 41.9988L45.7214 41.2369L32.5279 45.2459ZM92.6258 71.576C102.956 62.1158 108.237 43.6403 101.789 26.9852C95.284 10.1819 79.2531 1.41716 68.7229 0.798409C69.1121 4.68476 69.4348 8.54553 69.9009 12.391C71.0738 22.0762 73.3888 31.3625 79.5041 39.3244C81.9164 42.4693 84.2057 45.6959 86.5156 48.9124C87.3044 50.0118 88.006 51.1624 88.7538 52.2925L88.4465 52.584L81.481 48.4931C84.3748 57.0431 87.8831 64.5856 92.6258 71.576ZM28.7276 67.8021C33.8903 76.2242 50.5614 85.4441 58.0647 84.0838C57.8045 83.2945 57.5924 82.4902 57.4296 81.6753C56.6613 76.4032 55.806 71.1362 55.2426 65.8231C54.9968 63.4811 54.8278 62.847 52.4462 62.9084C51.1607 62.9391 49.8854 63.4197 48.6101 63.7419C47.7957 63.9669 47.0275 64.3248 46.2387 64.6214C49.8239 61.1851 54.0953 59.0271 58.6895 57.6209C63.2837 56.2147 68.0058 55.1613 72.7536 53.934C67.591 41.8965 63.5346 29.6392 66.0954 15.8171C65.8561 16.0991 65.6354 16.3963 65.4348 16.7069C59.2102 29.5148 52.9908 42.3244 46.7765 55.1357C45.9416 56.8027 45.2041 58.5822 44.0927 60.0601C43.1952 61.252 42.0211 62.2085 40.6714 62.847C36.7533 64.647 32.7328 66.176 28.7276 67.797V67.8021ZM62.7305 64.4425C64.0775 71.0902 65.2914 77.1038 66.5923 83.1276C66.7094 83.4054 66.8955 83.6488 67.133 83.8349C67.3704 84.021 67.6514 84.1436 67.9495 84.1912C76.4509 83.0965 84.4104 79.4212 90.7513 73.6623C81.8754 69.4743 73.3682 65.0919 62.6998 64.4578L62.7305 64.4425Z" fill="white"/>
<path d="M32.5585 45.165C32.6281 45.1873 32.7006 45.1993 32.7737 45.2008C33.238 45.1213 33.6883 44.9749 34.1104 44.7662L35.7801 44.2548L39.2065 43.2321L42.5458 42.2094L44.2155 41.698C44.6713 41.56 45.3525 41.1406 45.8391 41.3759C46.7252 41.8207 45.8391 42.6849 45.5062 43.1196L44.1899 44.9656L41.5164 48.6628L36.1899 56.0571L32.241 61.5389L30.2589 64.2849C30.0796 64.5354 28.2102 66.949 28.2768 67.0411C19.9233 57.2639 16.077 38.1287 25.1116 21.8828C34.8428 4.36863 53.9621 -1.86486 66.9712 0.512975C66.879 0.512975 64.692 6.40897 64.4667 6.96124C63.5789 9.07146 62.6195 11.1561 61.5883 13.2152C59.5819 17.2479 57.2561 21.1142 54.633 24.7771C52.02 28.424 49.0651 31.8143 45.8083 34.902C42.4245 38.0857 38.7187 40.9099 34.7506 43.3293C34.305 43.6003 33.8338 43.8406 33.378 44.081C33.0424 44.2155 32.7229 44.387 32.4254 44.5923C32.1437 44.8582 32.2871 45.0832 32.5585 45.165Z" fill="white"/>
<path d="M92.6257 71.5761C87.8933 64.5858 84.3849 57.0432 81.4604 48.5086L83.9649 49.9659L86.2492 51.3006L87.3402 51.9449L87.883 52.2568C88.0096 52.3624 88.149 52.4518 88.2979 52.5228C88.3599 52.5396 88.4254 52.5379 88.4864 52.5179C88.5474 52.4979 88.6012 52.4605 88.641 52.4103C88.7537 52.2671 88.641 52.1699 88.5693 52.0523C88.4976 51.9347 88.4157 51.8222 88.3389 51.7046C88.2057 51.5 88.0726 51.2853 87.9189 51.0807C87.6526 50.6665 87.4067 50.2472 87.1148 49.833C86.8997 49.5159 86.6948 49.204 86.4694 48.8972C84.1544 45.6859 81.8599 42.454 79.4528 39.3041C73.3631 31.3473 71.0429 22.0609 69.8496 12.3758C69.3835 8.53032 69.0659 4.66955 68.6716 0.783203C79.171 1.39684 95.2327 10.1667 101.742 26.97C108.221 43.6302 102.946 62.1159 92.6257 71.5761Z" fill="white"/>
<path d="M28.7122 67.8027C32.7173 66.1715 36.7379 64.6527 40.6457 62.8885C41.9933 62.2442 43.1664 61.2868 44.067 60.0965C45.1784 58.6187 45.9313 56.8596 46.7457 55.1721C52.9771 42.371 59.1982 29.5631 65.4091 16.7484C65.6097 16.4361 65.8304 16.1372 66.0698 15.8535C63.5089 29.6603 67.5704 41.9329 72.728 53.9704C67.9853 55.2028 63.2733 56.2562 58.6689 57.6624C54.0645 59.0687 49.8033 61.2419 46.2181 64.6578C47.0017 64.3612 47.7546 64.0033 48.5843 63.7783C49.8391 63.4306 51.1452 62.9448 52.4256 62.9448C54.8072 62.8834 54.9864 63.5175 55.222 65.8647C55.7803 71.1572 56.6356 76.4243 57.4039 81.7169C57.5722 82.5305 57.7842 83.3345 58.0389 84.1254C50.5459 85.4447 33.8697 76.2248 28.7122 67.8027Z" fill="white"/>
<path d="M62.7099 64.4434C73.3784 65.0928 81.8856 69.4752 90.7307 73.6479C84.3899 79.4067 76.4304 83.0821 67.929 84.1768C67.5141 84.233 66.6793 83.5632 66.5717 83.1132C65.2708 77.1302 64.0569 71.0706 62.7099 64.4434Z" fill="white"/>
<path d="M17.0092 94.9198C17.96 95.0462 18.8932 95.2813 19.7903 95.6204C19.9557 95.6573 20.1026 95.7515 20.2051 95.8863C20.2806 96.0627 20.3223 96.2518 20.328 96.4436L20.7941 101.429C20.7941 101.501 20.7378 101.547 20.6149 101.573C20.5671 101.589 20.5151 101.587 20.4688 101.567C20.4225 101.547 20.3852 101.511 20.3639 101.465C19.8389 99.7299 18.8447 98.1728 17.4906 96.9652C16.234 95.9193 14.6395 95.365 13.004 95.4056C11.4491 95.3825 9.92501 95.8397 8.64035 96.7147C7.30122 97.6532 6.25538 98.9509 5.62366 100.458C4.14984 104.151 4.16266 108.27 5.65949 111.953C6.31739 113.5 7.40062 114.83 8.78377 115.788C10.136 116.694 11.7343 117.164 13.3625 117.133C14.865 117.183 16.3378 116.707 17.5265 115.788C18.6532 114.895 19.7185 113.419 20.7224 111.36C20.748 111.288 20.8197 111.268 20.9427 111.288C21.0656 111.309 21.1219 111.36 21.1219 111.432L20.579 115.881C20.5597 116.072 20.5114 116.26 20.4356 116.438C20.3322 116.562 20.1954 116.654 20.0412 116.704C17.9076 117.482 15.6546 117.884 13.383 117.89C11.0099 117.93 8.6585 117.433 6.50458 116.438C4.56987 115.54 2.92275 114.124 1.74657 112.347C0.588851 110.579 -0.0123601 108.506 0.020505 106.395C-0.0127993 104.236 0.606602 102.117 1.79778 100.315C3.01763 98.5061 4.70635 97.0621 6.68383 96.1368C8.84276 95.1128 11.2081 94.5968 13.5981 94.6283C14.7409 94.6388 15.8812 94.7362 17.0092 94.9198Z" fill="white"/>
<path d="M27.6571 117.24C27.6571 117.097 27.6929 117.025 27.7646 117.025C28.3271 117.051 28.8902 116.991 29.4343 116.846C29.5983 116.794 29.7474 116.704 29.8695 116.583C29.9915 116.462 30.0829 116.314 30.136 116.151C30.2762 115.631 30.3366 115.093 30.3152 114.555V97.9514C30.338 97.4186 30.2775 96.8855 30.136 96.3713C30.0772 96.2072 29.9816 96.0587 29.8564 95.9373C29.7312 95.8158 29.5798 95.7247 29.4138 95.6707C28.878 95.5186 28.3212 95.453 27.7646 95.4764C27.6929 95.4764 27.6571 95.4048 27.6571 95.2616C27.6571 95.1185 27.6929 95.0469 27.7646 95.0469H42.9914C43.2321 95.0469 43.35 95.1543 43.35 95.369L43.4217 100.135C43.4217 100.186 43.3551 100.222 43.227 100.242C43.099 100.263 43.017 100.242 42.9914 100.171C42.7119 98.959 42.0295 97.8775 41.0555 97.1025C40.0008 96.3873 38.7442 96.0289 37.4703 96.0798H36.3947C35.8274 96.0317 35.2627 96.1977 34.8121 96.5452C34.6307 96.7355 34.4914 96.9618 34.4032 97.2093C34.315 97.4569 34.2798 97.7201 34.2999 97.9821V114.407C34.261 114.948 34.3995 115.486 34.6943 115.941C34.8494 116.119 35.0442 116.258 35.2631 116.347C35.482 116.436 35.7187 116.472 35.9542 116.452H37.1374C38.7158 116.529 40.2808 116.13 41.6291 115.307C42.8342 114.425 43.7073 113.165 44.108 111.727C44.108 111.681 44.1541 111.656 44.2514 111.656C44.3203 111.656 44.3879 111.675 44.446 111.712C44.5075 111.746 44.5382 111.777 44.5382 111.804C44.3104 113.491 44.1907 115.19 44.1797 116.892C44.1934 117.039 44.1553 117.185 44.0721 117.306C44.012 117.356 43.9425 117.393 43.8676 117.415C43.7928 117.437 43.7142 117.444 43.6367 117.434H27.7595C27.6929 117.46 27.6571 117.388 27.6571 117.24ZM40.4971 107.146C39.53 106.528 38.3907 106.234 37.2449 106.307H32.3998V105.284H37.2807C38.3924 105.352 39.5007 105.104 40.4767 104.568C40.8254 104.363 41.1128 104.069 41.3091 103.715C41.5054 103.362 41.6035 102.963 41.5932 102.559C41.5932 102.487 41.6598 102.451 41.7878 102.451C41.9159 102.451 41.9876 102.487 41.9876 102.559L41.9518 105.785L41.9876 107.509C42.0337 108.322 42.0593 108.966 42.0593 109.447C42.0593 109.493 41.9876 109.518 41.8442 109.518C41.7007 109.518 41.6291 109.493 41.6291 109.447C41.643 109 41.5471 108.557 41.3498 108.156C41.1525 107.755 40.8597 107.408 40.4971 107.146Z" fill="white"/>
<path d="M58.6894 117.496L57.2707 117.419C56.7073 117.419 56.0774 117.388 55.3859 117.388L52.7278 117.419C52.2463 117.419 51.601 117.46 50.7867 117.46C50.7355 117.46 50.715 117.388 50.715 117.24C50.715 117.092 50.715 117.025 50.7867 117.025C51.3542 117.05 51.9222 116.99 52.4717 116.846C52.6409 116.797 52.7959 116.708 52.9241 116.587C53.0523 116.466 53.15 116.317 53.2092 116.151C53.3659 115.634 53.4335 115.095 53.409 114.555V97.9514C53.4349 97.4171 53.3673 96.8824 53.2092 96.3713C53.1481 96.2094 53.0522 96.0628 52.9284 95.9418C52.8045 95.8207 52.6556 95.7282 52.4922 95.6707C51.9618 95.5177 51.4099 95.452 50.8583 95.4764C50.7866 95.4764 50.7508 95.4048 50.7508 95.2616C50.7508 95.1185 50.7866 95.0469 50.8583 95.0469L52.7636 95.0827C53.8648 95.1287 54.7355 95.1543 55.3859 95.1543C56.3642 95.1543 57.3732 95.1185 58.4026 95.0469C59.6472 94.9957 60.482 94.9753 60.9122 94.9753C63.1452 94.9321 65.3562 95.423 67.3605 96.4071C69.1492 97.2809 70.6598 98.6334 71.7241 100.314C72.7557 101.983 73.2887 103.911 73.2606 105.872C73.3006 108.025 72.7479 110.148 71.6626 112.009C70.6324 113.754 69.1403 115.182 67.3502 116.135C65.5224 117.107 63.4799 117.607 61.4091 117.588C60.651 117.603 59.7394 117.567 58.6894 117.496ZM65.1172 115.609C66.3549 114.753 67.3103 113.55 67.8624 112.152C68.5621 110.409 68.8984 108.542 68.8508 106.665C68.875 104.776 68.5593 102.899 67.9187 101.122C67.3912 99.6035 66.4748 98.2495 65.2605 97.1946C64.149 96.2527 62.7337 95.7441 61.2759 95.7628C59.7906 95.7628 58.7663 95.906 58.2029 96.1923C57.6497 96.4787 57.3732 97.0872 57.3732 98.023V114.156C57.3732 115.113 57.6241 115.788 58.126 116.202C58.628 116.616 59.6011 116.79 61.0402 116.79C62.4875 116.816 63.9088 116.404 65.1172 115.609Z" fill="white"/>
<path d="M104.124 117.24C104.124 117.388 104.062 117.46 103.945 117.46C103.463 117.46 102.721 117.434 101.717 117.388C100.713 117.342 99.9088 117.312 99.4529 117.312C98.8537 117.312 98.1265 117.337 97.2609 117.388C96.3953 117.44 95.8012 117.46 95.3249 117.46C95.2276 117.46 95.1815 117.388 95.1815 117.24C95.1815 117.092 95.2276 117.025 95.3249 117.025C95.7825 117.053 96.241 116.987 96.6719 116.831C96.8036 116.77 96.9134 116.67 96.9867 116.545C97.0599 116.42 97.093 116.275 97.0816 116.13C96.9776 115.409 96.7341 114.714 96.3646 114.085L89.0713 99.7055L90.8331 96.6373L83.6628 112.382C83.3745 112.987 83.2157 113.645 83.1967 114.315C83.1775 114.699 83.2507 115.082 83.4103 115.431C83.5698 115.781 83.8109 116.087 84.1135 116.325C84.8274 116.836 85.6947 117.089 86.5719 117.041C86.6948 117.041 86.7563 117.112 86.7563 117.255C86.7563 117.404 86.6948 117.475 86.5719 117.475C86.1417 117.475 85.5476 117.45 84.7076 117.404C83.796 117.353 83.0072 117.327 82.3363 117.327C81.6653 117.327 80.9124 117.353 80.0008 117.404C79.1864 117.45 78.5308 117.475 78.0289 117.475C77.9316 117.475 77.8804 117.404 77.8804 117.255C77.8804 117.107 77.9316 117.041 78.0289 117.041C78.6176 117.062 79.2008 116.92 79.714 116.632C80.2728 116.247 80.7397 115.744 81.0814 115.159C81.6917 114.153 82.2308 113.105 82.6948 112.024L90.49 94.9191C90.5361 94.8476 90.6436 94.8066 90.8126 94.8066C90.9817 94.8066 91.1097 94.8476 91.1353 94.9191L100.114 112.561C100.676 113.805 101.375 114.984 102.198 116.074C102.396 116.353 102.654 116.584 102.952 116.751C103.251 116.918 103.583 117.017 103.924 117.041C104.062 117.015 104.124 117.097 104.124 117.24ZM84.8715 108.24H95.2173L95.4683 109.263H84.3337L84.8715 108.24Z" fill="white"/>
<path d="M123.868 96.1361C124.433 96.491 124.896 96.9872 125.211 97.5756C125.525 98.1639 125.68 98.824 125.661 99.4906C125.674 100.814 125.265 102.107 124.493 103.183C123.717 104.279 122.674 105.16 121.461 105.739C120.243 106.343 118.902 106.656 117.543 106.655C116.611 106.655 115.95 106.655 115.571 106.619V114.545C115.545 115.088 115.605 115.632 115.75 116.156C115.804 116.317 115.896 116.463 116.018 116.582C116.14 116.7 116.289 116.787 116.452 116.836C116.996 116.981 117.559 117.042 118.122 117.015C118.168 117.015 118.193 117.087 118.193 117.23C118.193 117.373 118.193 117.45 118.122 117.45C117.328 117.45 116.708 117.45 116.252 117.409L113.522 117.378L110.9 117.409C110.418 117.409 109.773 117.45 108.959 117.45C108.887 117.45 108.851 117.378 108.851 117.23C108.851 117.081 108.887 117.015 108.959 117.015C109.521 117.042 110.085 116.981 110.628 116.836C110.794 116.783 110.945 116.693 111.071 116.572C111.196 116.451 111.292 116.304 111.351 116.141C111.503 115.623 111.568 115.084 111.545 114.545V97.9514C111.568 97.4186 111.507 96.8855 111.366 96.3713C111.308 96.2075 111.213 96.0592 111.089 95.9378C110.965 95.8163 110.814 95.725 110.649 95.6707C110.111 95.5187 109.553 95.4531 108.995 95.4764C108.949 95.4764 108.923 95.4048 108.923 95.2616C108.923 95.1184 108.949 95.0469 108.995 95.0469L110.9 95.0826C112.001 95.1287 112.877 95.1542 113.522 95.1542C114.338 95.1542 115.192 95.1184 116.083 95.0469C116.396 95.0213 116.785 94.9957 117.251 94.9753C117.717 94.9548 118.239 94.9395 118.813 94.9395C120.991 94.9395 122.676 95.3383 123.868 96.1361ZM120.703 96.8008C120.41 96.4308 120.033 96.1368 119.602 95.9436C119.171 95.7504 118.7 95.6638 118.229 95.6912C117.504 95.6221 116.778 95.8124 116.18 96.2281C115.956 96.4662 115.785 96.7496 115.68 97.0593C115.575 97.369 115.538 97.6976 115.571 98.023V105.622C116.259 105.726 116.954 105.774 117.65 105.765C119.038 105.765 120.042 105.376 120.652 104.599C121.261 103.822 121.568 102.554 121.568 100.856C121.575 98.8923 121.29 97.5406 120.713 96.8008H120.703ZM123.469 114.463C121.535 111.777 119.739 108.995 118.086 106.128L121.389 105.105C123.376 108.116 125.034 110.471 126.362 112.172C127.379 113.549 128.569 114.79 129.901 115.864C130.755 116.565 131.814 116.967 132.918 117.01C132.964 117.01 132.99 117.081 132.99 117.225C132.99 117.368 132.99 117.444 132.918 117.444H126.526C125.983 117.46 124.964 116.458 123.479 114.458L123.469 114.463Z" fill="white"/>
<path d="M4.92711 129.539H7.82088C7.82245 129.957 7.75674 130.373 7.62625 130.771C7.49927 131.145 7.30294 131.492 7.0475 131.794C6.78962 132.098 6.46787 132.343 6.10506 132.51C5.70796 132.689 5.27586 132.778 4.84002 132.77C4.4103 132.775 3.98387 132.695 3.58523 132.535C3.20093 132.388 2.85195 132.161 2.56089 131.87C2.27211 131.579 2.0471 131.231 1.90018 130.848C1.58731 130.024 1.58731 129.115 1.90018 128.291C2.04726 127.911 2.27149 127.565 2.55883 127.275C2.84617 126.986 3.1904 126.759 3.56985 126.609C3.96849 126.448 4.39492 126.368 4.82464 126.373C5.18341 126.371 5.54067 126.42 5.88487 126.522C6.20015 126.619 6.49636 126.769 6.76065 126.966C7.02162 127.169 7.24374 127.416 7.41624 127.698L6.87844 128.183C6.68369 127.853 6.39974 127.583 6.05899 127.406C5.67642 127.215 5.25253 127.12 4.82464 127.13C4.40935 127.121 3.99933 127.224 3.63844 127.429C3.27754 127.635 2.97938 127.934 2.77597 128.296C2.56569 128.689 2.45574 129.128 2.45574 129.574C2.45574 130.02 2.56569 130.459 2.77597 130.853C2.97677 131.212 3.27041 131.51 3.62618 131.717C3.93544 131.89 4.27827 131.996 4.63164 132.025C4.98501 132.055 5.34074 132.01 5.67486 131.891C5.91121 131.807 6.12747 131.674 6.30994 131.502C6.48889 131.339 6.63946 131.147 6.75553 130.935C6.87002 130.719 6.95445 130.488 7.00648 130.249H4.95781L4.92711 129.539Z" fill="white"/>
<path d="M12.333 130.346L12.2613 130.505L11.3394 132.693H10.4892L13.383 126.158L16.2767 132.693H15.4316L14.5251 130.561L14.4534 130.382L13.383 127.876L12.333 130.346ZM12.0206 130.116H14.776L15.0475 130.827H11.7491L12.0206 130.116Z" fill="white"/>
<path d="M20.287 126.469V132.692H19.529V126.469H20.287ZM19.9489 126.469H21.2191C21.5922 126.462 21.9619 126.541 22.2998 126.699C22.6083 126.838 22.8712 127.062 23.0578 127.344C23.2516 127.638 23.3499 127.984 23.3395 128.336C23.3482 128.687 23.2501 129.033 23.0578 129.328C22.8698 129.61 22.6075 129.834 22.2998 129.977C21.9615 130.133 21.5918 130.21 21.2191 130.202H19.9489V129.537H21.2191C21.4625 129.543 21.704 129.494 21.9259 129.394C22.1236 129.309 22.2913 129.166 22.4074 128.985C22.5014 128.845 22.5639 128.686 22.5905 128.519C22.6171 128.353 22.6071 128.183 22.5614 128.02C22.5156 127.858 22.4351 127.707 22.3254 127.579C22.2156 127.451 22.0794 127.348 21.9259 127.277C21.7028 127.181 21.4619 127.134 21.2191 127.139H19.9489V126.469ZM21.4854 129.624L23.7134 132.692H22.7761L20.6404 129.624H21.4854Z" fill="white"/>
<path d="M27.7647 126.469V132.692H27.0067V126.469H27.7647ZM27.4266 132.692V131.936H28.8761C29.2044 131.941 29.5309 131.885 29.839 131.772C30.1183 131.669 30.373 131.509 30.5867 131.302C30.796 131.09 30.9599 130.837 31.0682 130.56C31.2936 129.927 31.2936 129.235 31.0682 128.602C30.9586 128.325 30.7949 128.073 30.5867 127.86C30.3717 127.655 30.1174 127.495 29.839 127.39C29.5302 127.279 29.2042 127.223 28.8761 127.226H27.4266V126.469H28.8761C29.4388 126.46 29.9945 126.595 30.4894 126.863C30.9501 127.118 31.3312 127.495 31.5905 127.952C31.8531 128.456 31.9902 129.015 31.9902 129.583C31.9902 130.151 31.8531 130.711 31.5905 131.215C31.3312 131.672 30.9501 132.049 30.4894 132.304C29.994 132.57 29.4384 132.703 28.8761 132.692H27.4266Z" fill="white"/>
<path d="M36.2872 126.471V132.694H35.5343V126.471H36.2872ZM35.9491 126.471H39.0939V127.182H35.9491V126.471ZM35.9491 128.961H38.9146V129.672H35.9491V128.961ZM35.9491 131.983H39.0939V132.694H35.9491V131.983Z" fill="white"/>
<path d="M48.4153 126.47V133.005L43.6982 128.06V132.693H42.9453V126.158L47.6675 131.103V126.47H48.4153Z" fill="white"/>
<path d="M53.0146 131.466C53.1558 131.645 53.3296 131.796 53.5268 131.911C53.7313 132.02 53.9606 132.075 54.1926 132.07C54.486 132.083 54.7737 131.985 54.9967 131.793C55.0954 131.706 55.1736 131.598 55.2258 131.477C55.278 131.356 55.3029 131.225 55.2989 131.093C55.3119 130.855 55.2413 130.62 55.0991 130.428C54.9638 130.254 54.788 130.115 54.5869 130.024C54.37 129.915 54.1459 129.821 53.916 129.743C53.7624 129.687 53.5882 129.62 53.4039 129.533C53.2112 129.445 53.0291 129.335 52.8609 129.206C52.6876 129.066 52.5448 128.892 52.441 128.695C52.3236 128.473 52.267 128.224 52.277 127.974C52.2725 127.683 52.3526 127.397 52.5076 127.15C52.664 126.904 52.8855 126.706 53.1478 126.578C53.4365 126.432 53.7566 126.36 54.0799 126.368C54.3861 126.359 54.69 126.424 54.9659 126.557C55.2131 126.683 55.4326 126.857 55.6113 127.069C55.7806 127.255 55.9221 127.465 56.0313 127.692L55.3808 128.066C55.2994 127.906 55.2015 127.755 55.0888 127.616C54.9702 127.467 54.8242 127.342 54.6586 127.247C54.4668 127.151 54.2538 127.103 54.0389 127.109C53.9061 127.098 53.7723 127.113 53.6456 127.154C53.5188 127.196 53.4017 127.262 53.3014 127.35C53.2276 127.421 53.1687 127.506 53.1283 127.6C53.0878 127.694 53.0666 127.795 53.0658 127.897C53.0649 128.065 53.111 128.229 53.199 128.372C53.3151 128.542 53.4695 128.682 53.6497 128.782C53.9221 128.938 54.2105 129.065 54.5101 129.16C54.685 129.227 54.856 129.304 55.0223 129.39C55.2094 129.486 55.3818 129.608 55.5344 129.753C55.6949 129.898 55.8269 130.071 55.9237 130.265C56.0317 130.495 56.0843 130.747 56.0774 131.001C56.0793 131.255 56.0251 131.506 55.9186 131.737C55.8177 131.952 55.6729 132.144 55.4935 132.3C55.3107 132.452 55.1028 132.572 54.8789 132.653C54.6099 132.747 54.3247 132.788 54.0399 132.772C53.7551 132.756 53.4763 132.684 53.2195 132.561C52.9351 132.416 52.6798 132.22 52.4665 131.983C52.2609 131.75 52.0886 131.49 51.9544 131.211L52.5639 130.807C52.6952 131.039 52.846 131.259 53.0146 131.466Z" fill="white"/>
<path d="M66.0442 130.346L65.9725 130.505L65.0506 132.693H64.2004L67.0941 126.158L69.9879 132.693H69.1428L68.2363 130.561L68.1646 130.382L67.0941 127.876L66.0442 130.346ZM65.7318 130.116H68.4924L68.7587 130.827H65.4808L65.7318 130.116Z" fill="white"/>
<path d="M78.7152 126.47V133.005L73.993 128.06V132.693H73.2402V126.158L77.9572 131.103V126.47H78.7152Z" fill="white"/>
<path d="M83.4067 126.469V132.693H82.6538V126.469H83.4067ZM83.0686 132.693V131.936H84.5232C84.8499 131.941 85.1748 131.886 85.481 131.772C85.7619 131.672 86.0175 131.511 86.2298 131.302C86.4421 131.093 86.606 130.839 86.7101 130.56C86.9356 129.927 86.9356 129.235 86.7101 128.602C86.6045 128.323 86.4404 128.07 86.2287 127.86C86.0154 127.653 85.7606 127.492 85.481 127.39C85.1741 127.278 84.8497 127.223 84.5232 127.226H83.0686V126.469H84.5232C85.0844 126.459 85.6386 126.595 86.1314 126.863C86.5946 127.116 86.9778 127.493 87.2377 127.952C87.5003 128.456 87.6374 129.016 87.6374 129.583C87.6374 130.151 87.5003 130.711 87.2377 131.215C86.9778 131.674 86.5946 132.051 86.1314 132.304C85.6381 132.57 85.084 132.704 84.5232 132.693H83.0686Z" fill="white"/>
<path d="M97.097 126.471V132.694H96.339V126.471H97.097ZM96.7589 128.961H101.036V129.672H96.7589V128.961ZM101.281 126.471V132.694H100.523V126.471H101.281Z" fill="white"/>
<path d="M105.082 128.316C105.228 127.933 105.453 127.585 105.742 127.293C106.036 127.003 106.384 126.773 106.767 126.618C107.573 126.291 108.475 126.291 109.281 126.618C109.664 126.774 110.012 127.003 110.306 127.293C110.595 127.586 110.821 127.934 110.972 128.316C111.286 129.129 111.286 130.029 110.972 130.842C110.822 131.225 110.596 131.573 110.306 131.865C110.014 132.158 109.665 132.39 109.281 132.545C108.474 132.865 107.574 132.865 106.767 132.545C106.383 132.39 106.034 132.158 105.742 131.865C105.453 131.574 105.227 131.226 105.082 130.842C104.767 130.029 104.767 129.129 105.082 128.316ZM105.942 130.822C106.143 131.188 106.439 131.492 106.8 131.702C107.161 131.912 107.573 132.02 107.991 132.013C108.418 132.021 108.838 131.909 109.205 131.691C109.555 131.48 109.843 131.18 110.039 130.822C110.241 130.434 110.347 130.003 110.347 129.566C110.347 129.129 110.241 128.699 110.039 128.311C109.842 127.954 109.554 127.654 109.205 127.442C108.838 127.225 108.417 127.115 107.991 127.125C107.565 127.117 107.145 127.226 106.777 127.442C106.426 127.654 106.137 127.953 105.937 128.311C105.735 128.699 105.63 129.129 105.63 129.566C105.63 130.003 105.735 130.434 105.937 130.822H105.942Z" fill="white"/>
<path d="M113.835 126.471H117.799V127.182H116.185V132.694H115.427V127.182H113.824L113.835 126.471Z" fill="white"/>
<path d="M121.85 126.471V132.694H121.092V126.471H121.85ZM121.512 126.471H124.652V127.182H121.512V126.471ZM121.512 128.961H124.472V129.672H121.512V128.961ZM121.512 131.983H124.652V132.694H121.512V131.983Z" fill="white"/>
<path d="M129.236 126.471V131.983H131.684V132.694H128.478V126.471H129.236Z" fill="white"/>
</g>
<defs>
<clipPath id="clip0_107_362">
<rect width="133" height="133" fill="white"/>
</clipPath>
</defs>
</svg>
